<?xml version="1.0" encoding="utf-8"?>
<!-- Generator: Adobe Illustrator 22.0.1, SVG Export Plug-In . SVG Version: 6.00 Build 0)  -->
<svg version="1.1" id="Layer_1" xmlns="http://www.w3.org/2000/svg" xmlns:xlink="http://www.w3.org/1999/xlink" x="0px" y="0px"
	 viewBox="0 0 153 83" style="enable-background:new 0 0 153 83;" xml:space="preserve">
<style type="text/css">
	.st0{fill:url(#SVGID_1_);}
	.st1{fill:url(#SVGID_2_);}
	.st2{fill:url(#SVGID_3_);}
	.st3{fill:none;stroke:url(#SVGID_4_);stroke-width:1.2;stroke-miterlimit:10;}
	.st4{fill:url(#SVGID_5_);}
	.st5{fill:url(#SVGID_6_);}
	.st6{fill:url(#SVGID_7_);}
	.st7{fill:url(#SVGID_8_);}
</style>
<linearGradient id="SVGID_1_" gradientUnits="userSpaceOnUse" x1="0" y1="41.5071" x2="153" y2="41.5071">
	<stop  offset="0" style="stop-color:#FFFFFF"/>
	<stop  offset="1" style="stop-color:#9BA8B0"/>
</linearGradient>
<path class="st0" d="M53.7,43.6c-4.9,0-8.8,3.9-8.8,8.8s3.9,8.8,8.8,8.8c4.9,0,8.8-3.9,8.8-8.8S58.6,43.6,53.7,43.6z M53.7,60
	c-4.2,0-7.6-3.4-7.6-7.6s3.4-7.6,7.6-7.6s7.6,3.4,7.6,7.6S57.9,60,53.7,60z M53.7,21.8c-4.9,0-8.8,3.9-8.8,8.8s3.9,8.8,8.8,8.8
	c4.9,0,8.8-3.9,8.8-8.8S58.6,21.8,53.7,21.8z M53.7,38.2c-4.2,0-7.6-3.4-7.6-7.6s3.4-7.6,7.6-7.6s7.6,3.4,7.6,7.6
	S57.9,38.2,53.7,38.2z M58.1,30.6h-1.2c0-1.7-1.4-3.1-3.1-3.1v-1.2C56.1,26.3,58.1,28.2,58.1,30.6z M121.6,43.6
	c-4.9,0-8.8,3.9-8.8,8.8s3.9,8.8,8.8,8.8s8.8-3.9,8.8-8.8S126.4,43.6,121.6,43.6z M121.6,60c-4.2,0-7.6-3.4-7.6-7.6s3.4-7.6,7.6-7.6
	s7.6,3.4,7.6,7.6S125.8,60,121.6,60z M13.1,74.2h-1.2c0-1.7-1.4-3.1-3.1-3.1v-1.2C11.2,69.9,13.1,71.8,13.1,74.2z M80.5,74.2h-1.2
	c0-1.7-1.4-3.1-3.1-3.1v-1.2C78.6,69.9,80.5,71.8,80.5,74.2z M80.5,52.4h-1.2c0-1.7-1.4-3.1-3.1-3.1v-1.2
	C78.6,48.1,80.5,50,80.5,52.4z M125.5,52.4h-1.2c0-1.7-1.4-3.1-3.1-3.1v-1.2C123.6,48.1,125.5,50,125.5,52.4z M121.6,65.4
	c-4.9,0-8.8,3.9-8.8,8.8c0,4.9,3.9,8.8,8.8,8.8s8.8-3.9,8.8-8.8C130.4,69.4,126.4,65.4,121.6,65.4z M121.6,81.8
	c-4.2,0-7.6-3.4-7.6-7.6c0-4.2,3.4-7.6,7.6-7.6s7.6,3.4,7.6,7.6C129.2,78.4,125.8,81.8,121.6,81.8z M35.6,52.4h-1.2
	c0-1.7-1.4-3.1-3.1-3.1v-1.2C33.7,48.1,35.6,50,35.6,52.4z M31.3,43.6c-4.9,0-8.8,3.9-8.8,8.8s3.9,8.8,8.8,8.8s8.8-3.9,8.8-8.8
	S36.1,43.6,31.3,43.6z M31.3,60c-4.2,0-7.6-3.4-7.6-7.6s3.4-7.6,7.6-7.6s7.6,3.4,7.6,7.6S35.5,60,31.3,60z M8.8,65.4
	c-4.9,0-8.8,3.9-8.8,8.8C0,79.1,3.9,83,8.8,83s8.8-3.9,8.8-8.8C17.6,69.4,13.7,65.4,8.8,65.4z M8.8,81.8c-4.2,0-7.6-3.4-7.6-7.6
	c0-4.2,3.4-7.6,7.6-7.6s7.6,3.4,7.6,7.6C16.4,78.4,13,81.8,8.8,81.8z M144.2,65.4c-4.9,0-8.8,3.9-8.8,8.8c0,4.9,3.9,8.8,8.8,8.8
	s8.8-3.9,8.8-8.8C153,69.4,149.1,65.4,144.2,65.4z M144.2,81.8c-4.2,0-7.6-3.4-7.6-7.6c0-4.2,3.4-7.6,7.6-7.6s7.6,3.4,7.6,7.6
	C151.8,78.4,148.4,81.8,144.2,81.8z M58.1,52.4h-1.2c0-1.7-1.4-3.1-3.1-3.1v-1.2C56.1,48.1,58.1,50,58.1,52.4z M31.3,65.4
	c-4.9,0-8.8,3.9-8.8,8.8c0,4.9,3.9,8.8,8.8,8.8s8.8-3.9,8.8-8.8C40.1,69.4,36.1,65.4,31.3,65.4z M31.3,81.8c-4.2,0-7.6-3.4-7.6-7.6
	c0-4.2,3.4-7.6,7.6-7.6s7.6,3.4,7.6,7.6C38.9,78.4,35.5,81.8,31.3,81.8z M35.6,74.2h-1.2c0-1.7-1.4-3.1-3.1-3.1v-1.2
	C33.7,69.9,35.6,71.8,35.6,74.2z M58.1,74.2h-1.2c0-1.7-1.4-3.1-3.1-3.1v-1.2C56.1,69.9,58.1,71.8,58.1,74.2z M53.7,65.4
	c-4.9,0-8.8,3.9-8.8,8.8c0,4.9,3.9,8.8,8.8,8.8c4.9,0,8.8-3.9,8.8-8.8C62.5,69.4,58.6,65.4,53.7,65.4z M53.7,81.8
	c-4.2,0-7.6-3.4-7.6-7.6c0-4.2,3.4-7.6,7.6-7.6s7.6,3.4,7.6,7.6C61.3,78.4,57.9,81.8,53.7,81.8z M148,74.2h-1.2
	c0-1.7-1.4-3.1-3.1-3.1v-1.2C146,69.9,148,71.8,148,74.2z M76.4,65.4c-4.9,0-8.8,3.9-8.8,8.8c0,4.9,3.9,8.8,8.8,8.8s8.8-3.9,8.8-8.8
	C85.2,69.4,81.2,65.4,76.4,65.4z M76.4,81.8c-4.2,0-7.6-3.4-7.6-7.6c0-4.2,3.4-7.6,7.6-7.6S84,70,84,74.2
	C84,78.4,80.5,81.8,76.4,81.8z M103,30.6h-1.2c0-1.7-1.4-3.1-3.1-3.1v-1.2C101.1,26.3,103,28.2,103,30.6z M99,21.8
	c-4.9,0-8.8,3.9-8.8,8.8s3.9,8.8,8.8,8.8s8.8-3.9,8.8-8.8S103.8,21.8,99,21.8z M99,38.2c-4.2,0-7.6-3.4-7.6-7.6S94.8,23,99,23
	s7.6,3.4,7.6,7.6S103.2,38.2,99,38.2z M80.5,30.6h-1.2c0-1.7-1.4-3.1-3.1-3.1v-1.2C78.6,26.3,80.5,28.2,80.5,30.6z M125.5,74.2h-1.2
	c0-1.7-1.4-3.1-3.1-3.1v-1.2C123.6,69.9,125.5,71.8,125.5,74.2z M80.5,8.8h-1.2c0-1.7-1.4-3.1-3.1-3.1V4.5
	C78.6,4.5,80.5,6.4,80.5,8.8z M76.4,0c-4.9,0-8.8,3.9-8.8,8.8c0,4.9,3.9,8.8,8.8,8.8s8.8-3.9,8.8-8.8C85.2,3.9,81.2,0,76.4,0z
	 M76.4,16.4c-4.2,0-7.6-3.4-7.6-7.6c0-4.2,3.4-7.6,7.6-7.6S84,4.6,84,8.8C84,13,80.5,16.4,76.4,16.4z M76.4,43.6
	c-4.9,0-8.8,3.9-8.8,8.8s3.9,8.8,8.8,8.8s8.8-3.9,8.8-8.8S81.2,43.6,76.4,43.6z M76.4,60c-4.2,0-7.6-3.4-7.6-7.6s3.4-7.6,7.6-7.6
	s7.6,3.4,7.6,7.6S80.5,60,76.4,60z M99,43.6c-4.9,0-8.8,3.9-8.8,8.8s3.9,8.8,8.8,8.8s8.8-3.9,8.8-8.8S103.8,43.6,99,43.6z M99,60
	c-4.2,0-7.6-3.4-7.6-7.6s3.4-7.6,7.6-7.6s7.6,3.4,7.6,7.6S103.2,60,99,60z M76.4,21.8c-4.9,0-8.8,3.9-8.8,8.8s3.9,8.8,8.8,8.8
	s8.8-3.9,8.8-8.8S81.2,21.8,76.4,21.8z M76.4,38.2c-4.2,0-7.6-3.4-7.6-7.6s3.4-7.6,7.6-7.6s7.6,3.4,7.6,7.6S80.5,38.2,76.4,38.2z
	 M99,65.4c-4.9,0-8.8,3.9-8.8,8.8c0,4.9,3.9,8.8,8.8,8.8s8.8-3.9,8.8-8.8C107.8,69.4,103.8,65.4,99,65.4z M99,81.8
	c-4.2,0-7.6-3.4-7.6-7.6c0-4.2,3.4-7.6,7.6-7.6s7.6,3.4,7.6,7.6C106.6,78.4,103.2,81.8,99,81.8z M103,52.4h-1.2
	c0-1.7-1.4-3.1-3.1-3.1v-1.2C101.1,48.1,103,50,103,52.4z M103,74.2h-1.2c0-1.7-1.4-3.1-3.1-3.1v-1.2C101.1,69.9,103,71.8,103,74.2z
	 M140.4,9.1C140.4,9.1,140.4,9.1,140.4,9.1C140.4,9,140.4,9,140.4,9.1C140.3,9,140.3,9,140.4,9.1c-0.1-0.1-0.1-0.2-0.2-0.2
	c-0.1-0.1-0.1-0.1-0.2-0.1c0,0,0,0,0,0c0,0,0,0,0,0c0,0,0,0,0,0c-2.6-1.2-5.5-1.8-8.3-1.8c-5.2,0-10.2,2-13.9,5.7
	c-5.7,5.7-7.3,14.4-4.1,21.7l-2.4,2.4c-0.3,0.3-0.3,0.8,0,1.1c0.1,0.1,0.3,0.2,0.5,0.2c0.2,0,0.4-0.1,0.5-0.2l2.4-2.4
	c2.5,1.1,5.2,1.7,7.9,1.7c5.2,0,10.2-2,13.9-5.7C142.3,25.4,143.8,16.5,140.4,9.1z M140.3,21.1C140.3,21.1,140.2,21.1,140.3,21.1
	l-10.9-0.5l10-10C140.8,14,141,17.7,140.3,21.1z M136.2,29.3c-0.1,0-0.1,0-0.2,0l-14.6-0.7L128,22c0.1,0,0.2,0.1,0.3,0.1l11.6,0.5
	C139.2,25,138,27.3,136.2,29.3z M119.9,13c0-0.1,0-0.2-0.1-0.3c1.9-1.7,4.2-2.9,6.6-3.7l0.5,11.6c0,0.1,0,0.2,0.1,0.3l-6.5,6.5
	L119.9,13z M138.4,9.6l-10,10l-0.5-10.8c0,0,0-0.1,0-0.1c1.2-0.3,2.5-0.4,3.8-0.4C133.9,8.3,136.2,8.8,138.4,9.6z M118.4,14
	l0.7,14.7c0,0,0,0.1,0,0.1l-4.3,4.3C112.2,26.6,113.6,19.1,118.4,14z M115.9,34.2l4.2-4.2c0.1,0,0.2,0.1,0.3,0.1l14.5,0.7
	c-3.4,3.1-7.7,4.8-12.3,4.8C120.3,35.5,118,35,115.9,34.2z"/>
</svg>
