<?xml version="1.0" encoding="utf-8"?>
<!-- Generator: Adobe Illustrator 22.0.1, SVG Export Plug-In . SVG Version: 6.00 Build 0)  -->
<svg version="1.1" id="Layer_1" xmlns="http://www.w3.org/2000/svg" xmlns:xlink="http://www.w3.org/1999/xlink" x="0px" y="0px"
	 viewBox="0 0 152 68.3" style="enable-background:new 0 0 152 68.3;" xml:space="preserve">
<style type="text/css">
	.st0{fill:url(#SVGID_1_);}
	.st1{fill:url(#SVGID_2_);}
	.st2{fill:url(#SVGID_3_);}
	.st3{fill:none;stroke:url(#SVGID_4_);stroke-width:1.2;stroke-miterlimit:10;}
	.st4{fill:url(#SVGID_5_);}
	.st5{fill:url(#SVGID_6_);}
	.st6{fill:url(#SVGID_7_);}
	.st7{fill:url(#SVGID_8_);}
</style>
<linearGradient id="SVGID_1_" gradientUnits="userSpaceOnUse" x1="11.3672" y1="63.36" x2="145.1764" y2="2.9963">
	<stop  offset="0" style="stop-color:#FFFFFF"/>
	<stop  offset="1" style="stop-color:#9BA8B0"/>
</linearGradient>
<path class="st0" d="M112.3,24.9L112.3,24.9L112.3,24.9V9.3H41.1v35.6h71.1V24.9z M42.4,10.6h12.9L42.4,23.6V10.6z M110.9,43.6H42.4
	V25.4l14.8-14.8h39l14.8,14.8V43.6z M110.9,23.6L98,10.6h12.9V23.6z M145.9,9.3h-32.3v35.6h32.3V9.3z M144.5,43.6h-29.7V10.6h14.9
	l14.8,14.8V43.6z M144.5,23.6l-12.9-12.9h12.9V23.6z M113.1,60.3c0,3-2.4,5.4-5.4,5.4c-3,0-5.5-2.4-5.5-5.4c0-3,2.4-5.4,5.5-5.4
	C110.6,54.8,113.1,57.3,113.1,60.3z M136.3,60.3c0,3-2.4,5.4-5.5,5.4c-3,0-5.4-2.4-5.4-5.4c0-3,2.4-5.4,5.4-5.4
	C133.9,54.8,136.3,57.3,136.3,60.3z M107.6,52.3c-4.4,0-8,3.6-8,8c0,4.4,3.6,8,8,8c4.4,0,8-3.6,8-8C115.6,55.9,112,52.3,107.6,52.3z
	 M107.6,66.8c-3.6,0-6.5-2.9-6.5-6.5c0-3.6,2.9-6.5,6.5-6.5c3.6,0,6.5,2.9,6.5,6.5C114.1,63.9,111.2,66.8,107.6,66.8z M44.4,52.3
	c-4.4,0-8,3.6-8,8c0,4.4,3.6,8,8,8c4.4,0,8-3.6,8-8C52.4,55.9,48.8,52.3,44.4,52.3z M44.4,66.8c-3.6,0-6.5-2.9-6.5-6.5
	c0-3.6,2.9-6.5,6.5-6.5c3.6,0,6.5,2.9,6.5,6.5C50.9,63.9,48,66.8,44.4,66.8z M130.9,52.3c-4.4,0-8,3.6-8,8c0,4.4,3.6,8,8,8
	c4.4,0,8-3.6,8-8C138.8,55.9,135.3,52.3,130.9,52.3z M130.9,66.8c-3.6,0-6.5-2.9-6.5-6.5c0-3.6,2.9-6.5,6.5-6.5
	c3.6,0,6.5,2.9,6.5,6.5C137.3,63.9,134.4,66.8,130.9,66.8z M150.7,45.6l-1.3,3v0.2h-11.3h-36.3h-1.4h0h-0.3H89.6h-0.9H64.7h-0.9
	H53.3h-1.7h0H13.9H2.6v-0.2l-1.3-3H0v7.8h1.3v0l1.3-3v-0.3h11.3v0.7l2,2.2c1.6-1.3,3.6-2.1,5.8-2.1c5.1,0,9.2,4.1,9.2,9.2
	c0,0.2,0,0.3,0,0.5h4.3c0-0.2,0-0.3,0-0.5c0-5.1,4.1-9.2,9.2-9.2c2.1,0,3.9,0.7,5.5,1.8l1.7-2v-0.7h1.8l10.4,7.5v0h0l0,0h25.7l0,0h0
	v0l10.4-7.5h0.4v0.7l1.7,2c1.5-1.1,3.4-1.8,5.5-1.8c5.1,0,9.2,4.1,9.2,9.2c0,0.2,0,0.3,0,0.5h4.3c0-0.2,0-0.3,0-0.5
	c0-5.1,4.1-9.2,9.2-9.2c2.2,0,4.2,0.8,5.8,2.1l2-2.2v-0.7h11.3v0.3l1.3,3v0h1.3v-7.8H150.7z M16.1,51.4l-0.8-0.9v-0.2h3.4
	C17.7,50.5,16.9,50.9,16.1,51.4z M33.9,59.4h-1.7c-0.4-4.4-3.4-8-7.5-9.2h16.6C37.3,51.4,34.2,55.1,33.9,59.4z M88.6,50.2v6.3H64.7
	v-6.3H88.6z M50.3,50.4l-0.7,0.7c-0.7-0.4-1.4-0.7-2.2-1h2.9V50.4z M55.1,50.2h8.7v6.2L55.1,50.2z M89.6,56.4v-6.2h8.7L89.6,56.4z
	 M102.4,51.2l-0.7-0.7v-0.2h2.9C103.8,50.4,103.1,50.7,102.4,51.2z M119.8,59.4h-1.7c-0.4-4.4-3.4-8-7.5-9.2h16.6
	C123.2,51.4,120.2,55.1,119.8,59.4z M136.8,50.4l-0.8,0.9c-0.8-0.5-1.7-0.9-2.6-1.2h3.4V50.4z M148.5,8V6.7H142l-1.9-1.8l-1.5-0.5
	L134.4,4l-1.7-2.2l-4.6-1l-2.2,1.9l-6.2,2.6l-2.3-2.6L114.9,4l-2.4,1.7H110l-0.6,1H98.9L98.7,6l-2.8,0.5l-3-2.1l-2-1.6l-2.7,0.6
	L85.6,4l-1.8-1.7l-2.6-0.4l-2,2.1l-2.5-2.2l-1.1-1h-2.1l-1.3,1.7l-2.7,0.6l-1,0.9l-3.8-0.9l-0.9,2.8l-4.2,0.7v0.1h-9.3L46.5,6
	l-1.4-2h-2.6V2.6l-1.5-0.8l-3.3,0.8l-1-1.8l-4,1.1L31.7,0h-3.4l-0.7,1.3l-2.8,0.8L23,0.5l-3.9,1.2l-2.1,2.1h-3l-0.5,2
	c0,0-1.5-0.6-1.6-0.5c-0.1,0-0.4,1.1-0.5,1.5H6.2H4.9v40.9h143.6V8z M126.6,3.8l1.8-1.6l3.5,0.7l1.8,2.3l4.7,0.4l1,0.4l0.6,0.6
	h-20.1L126.6,3.8z M115.6,5.1l1.5-0.8l2,2.3h-5.6L115.6,5.1z M65.5,4.7l3.3,0.8L70,4.3l2.9-0.7l1.2-1.6H75l0.7,0.6l3.5,3.1l2.4-2.6
	l1.5,0.2l2,1.9l3.2-0.7l2.1-0.5L92,5.4l1.8,1.2h-29L65.5,4.7z M15.1,5.1h2.6l2.2-2.3l2.8-0.9l1.8,1.6l4-1.1l0.6-1.1h1.7l1,2.1
	L36,2.3l1,1.8l3.8-1l0.4,0.2v1.9h3.3l0.9,1.4H14.6L15.1,5.1z M147.2,46.2H6.2V8h141V46.2z M39.8,9.3H7.5v35.6h32.3V9.3z M8.8,10.6
	h12.9L8.8,23.6V10.6z M38.5,43.6H8.8V25.4l14.8-14.8h14.9V43.6z M49.8,60.3c0,3-2.4,5.4-5.5,5.4c-3,0-5.4-2.4-5.4-5.4
	c0-3,2.4-5.4,5.4-5.4C47.4,54.8,49.8,57.3,49.8,60.3z M26.6,60.3c0,3-2.4,5.4-5.4,5.4c-3,0-5.5-2.4-5.5-5.4c0-3,2.4-5.4,5.5-5.4
	C24.2,54.8,26.6,57.3,26.6,60.3z M21.1,52.3c-4.4,0-8,3.6-8,8c0,4.4,3.6,8,8,8s8-3.6,8-8C29.1,55.9,25.6,52.3,21.1,52.3z M21.1,66.8
	c-3.6,0-6.5-2.9-6.5-6.5c0-3.6,2.9-6.5,6.5-6.5c3.6,0,6.5,2.9,6.5,6.5C27.6,63.9,24.7,66.8,21.1,66.8z"/>
</svg>
