<?xml version="1.0" encoding="utf-8"?>
<!-- Generator: Adobe Illustrator 22.0.1, SVG Export Plug-In . SVG Version: 6.00 Build 0)  -->
<svg version="1.1" id="Layer_1" xmlns="http://www.w3.org/2000/svg" xmlns:xlink="http://www.w3.org/1999/xlink" x="0px" y="0px"
	 viewBox="0 0 152.7 107.4" style="enable-background:new 0 0 152.7 107.4;" xml:space="preserve">
<style type="text/css">
	.st0{fill:url(#SVGID_1_);}
	.st1{fill:url(#SVGID_2_);}
	.st2{fill:url(#SVGID_3_);}
	.st3{fill:none;stroke:url(#SVGID_4_);stroke-width:1.2;stroke-miterlimit:10;}
	.st4{fill:url(#SVGID_5_);}
	.st5{fill:url(#SVGID_6_);}
	.st6{fill:url(#SVGID_7_);}
	.st7{fill:url(#SVGID_8_);}
</style>
<linearGradient id="SVGID_1_" gradientUnits="userSpaceOnUse" x1="0" y1="53.7222" x2="152.6756" y2="53.7222">
	<stop  offset="0" style="stop-color:#FFFFFF"/>
	<stop  offset="1" style="stop-color:#9BA8B0"/>
</linearGradient>
<path class="st0" d="M69.4,11.2C68.8,26,56.6,37.7,41.7,37.7S14.6,26,14,11.2h2.2C16.8,24.7,28,35.5,41.7,35.5
	c13.7,0,24.8-10.8,25.5-24.3H69.4 M70.6,10H66c0,13.4-10.9,24.3-24.3,24.3c-13.4,0-24.3-10.9-24.3-24.3h-4.6c0,16,13,28.9,28.9,28.9
	S70.6,26,70.6,10L70.6,10z M62.4,11.2c-0.6,10.9-9.7,19.6-20.8,19.6s-20.1-8.7-20.8-19.6H62.4 M63.7,10h-44c0,12.1,9.9,22,22,22
	S63.7,22.1,63.7,10L63.7,10z M34.7,13.8c-0.4-0.7-2.3-0.3-3.5,0.4c-1.2,0.7-1.8,1.8-1.5,2.4c0.4,0.7,1.7,0.6,2.8,0
	C33.8,15.9,35.1,14.5,34.7,13.8z M37.4,16.4c-0.7-0.4-2.1,0.9-2.8,2.1c-0.7,1.2-0.7,2.5,0,2.8c0.7,0.4,1.8-0.3,2.4-1.5
	C37.7,18.7,38.1,16.8,37.4,16.4z M42.4,20.5c0-1.4-0.6-3.2-1.4-3.2c-0.8,0-1.4,1.9-1.4,3.2c0,1.4,0.6,2.5,1.4,2.5
	C41.8,23,42.4,21.9,42.4,20.5z M47.5,18.3c-0.7-1.2-2.2-2.5-2.8-2.1c-0.7,0.4-0.3,2.3,0.4,3.5c0.7,1.2,1.8,1.8,2.4,1.5
	C48.2,20.8,48.2,19.5,47.5,18.3z M50.7,13.9c-1.2-0.7-3.1-1.1-3.5-0.4c-0.4,0.7,0.9,2.1,2.1,2.8c1.2,0.7,2.5,0.7,2.8,0
	C52.6,15.7,51.9,14.6,50.7,13.9z M135.6,20.1v3.2H77.1v-3.2H135.6 M136.8,18.9H75.9v5.6h60.8V18.9L136.8,18.9z M132.8,28.1l-4.3,9.7
	h-5.2l-4.4-9.7H132.8 M134.6,26.9h-17.7l5.5,12.1h6.8L134.6,26.9L134.6,26.9z M113.2,28.1l-4.3,9.7h-5.2l-4.4-9.7H113.2 M115,26.9
	H97.3l5.5,12.1h6.8L115,26.9L115,26.9z M93.8,28.1l-4.3,9.7h-5.2l-4.4-9.7H93.8 M95.7,26.9H78l5.5,12.1h6.8L95.7,26.9L95.7,26.9z
	 M86.8,1.2c3.3,0,7.6,6.2,8.1,14.2H78.7C79.2,8.8,82.8,1.2,86.8,1.2 M86.8,0c-5.1,0-9.3,9.1-9.4,16.6h18.8c0-0.3,0-0.7,0-1
	C95.7,8.3,91.7,0,86.8,0L86.8,0z M92.6,12.9c0,0,0-3.5-1.5-6.6c-1.8-3.6-4.2-3.5-4.2-3.5s1.4,1.3,2.9,3.9
	C91.2,9.3,92.6,12.9,92.6,12.9z M106.3,1.4c3.4,0,7.6,6.4,8.1,14H98.2C98.7,7.7,102.9,1.4,106.3,1.4 M106.3,0.2
	c-5.1,0-9.2,9-9.4,16.4h18.7C115.5,9.2,111.4,0.2,106.3,0.2L106.3,0.2z M109,6.7c1.5,2.6,2.9,6.2,2.9,6.2s0-3.5-1.5-6.6
	c-1.8-3.6-4.2-3.5-4.2-3.5S107.5,4.2,109,6.7z M125.5,1.4c3.4,0,7.6,6.4,8.1,14h-16.2C117.9,7.7,122.1,1.4,125.5,1.4 M125.5,0.2
	c-5.1,0-9.2,9-9.4,16.4h18.7C134.7,9.2,130.6,0.2,125.5,0.2L125.5,0.2z M128.6,6.7c1.5,2.6,2.9,6.2,2.9,6.2s0-3.5-1.5-6.6
	c-1.8-3.6-4.2-3.5-4.2-3.5S127.1,4.2,128.6,6.7z M111.9,65.1l3.9,4l-0.1,29.5h-7.5l0.1-29.7L111.9,65.1 M111.9,63.4l-4.9,5.1
	l-0.1,31.3h9.9l0.1-31.2L111.9,63.4L111.9,63.4z M107.2,64.1l-1.9,2H93.3l1.9-2H107.2 M110,62.9H94.7l-4.2,4.4h15.3L110,62.9
	L110,62.9z M110.3,57.8l0,2.3H95.9v-2.3H110.3 M111.5,56.6H94.7v4.7h16.8L111.5,56.6L111.5,56.6z M104.1,70.2L104,98.6H90.5
	l0.1-28.4H104.1 M105.3,69H89.4l-0.1,30.8h15.8L105.3,69L105.3,69z M79.9,56.6H67.5v2.3h12.5V56.6L79.9,56.6z M79.3,62.3l0.2,0.5
	H68.1l0.2-0.5H79.3 M80.2,61.1H67.5L66.3,64h15.1L80.2,61.1L80.2,61.1z M81.2,66.8l0.6,1.4v29.2c0,0.7-0.5,1.2-1.2,1.2l-12.9,0l0,0
	l-0.5,0l-0.1,0c-0.7,0-1.2-0.5-1.2-1.2V68.2l0.6-1.4H81.2 M82,65.6H65.6l-1,2.4v29.4c0,1.3,1.1,2.4,2.4,2.4c0,0,0.1,0,0.1,0l0,0
	l13.4,0c1.3,0,2.4-1.1,2.4-2.4V68L82,65.6L82,65.6z M74.1,80.9l4.7-4.7c-1.2-1.2-2.9-1.9-4.7-2V80.9z M66.4,81.2h6.8l-4.8-4.8
	C67.2,77.7,66.5,79.4,66.4,81.2z M68.4,86.5l4.8-4.8h-6.8C66.5,83.6,67.2,85.2,68.4,86.5z M73.5,82.1l-4.8,4.8
	c1.3,1.2,2.9,1.9,4.8,1.9V82.1z M73.5,74.2c-1.8,0-3.5,0.7-4.8,1.9l4.8,4.8V74.2z M78.7,86.7l-4.7-4.7v6.7
	C75.9,88.7,77.5,87.9,78.7,86.7z M81,81.7h-6.5l4.7,4.7C80.2,85.1,80.9,83.5,81,81.7z M81,81.2c-0.1-1.8-0.8-3.4-1.9-4.7l-4.7,4.7
	H81z M54.6,57.7V59H36.3v-1.3H54.6 M55.8,56.5H35.1v3.7h20.7V56.5L55.8,56.5z M54.6,63l2.7,6.3v28.2c0,0.6-0.6,1.1-1.2,1.1l-20.4,0
	l0,0l-0.6,0l-0.1,0l0,0c-0.7,0-1.2-0.5-1.2-1.1V69.3l2.7-6.3H54.6 M55.4,61.8H35.7L32.6,69v28.5c0,1.3,1.1,2.3,2.4,2.3
	c0,0,0.1,0,0.1,0l0,0l21,0c1.3,0,2.4-1,2.4-2.3V69L55.4,61.8L55.4,61.8z M52.2,80c-1.9,0-3.4,1.5-3.4,3.2c0,1.8,1.5,3.2,3.4,3.2
	c1.9,0,3.4-1.5,3.4-3.2C55.6,81.5,54.1,80,52.2,80z M43.9,76.5c-2.3,2.2-4.2,3-6.1,5.3c-1.3,1.6-0.9,3-0.2,3.7c2.2,2.1,7.4-1.5,10-4
	c2.3-2.2,5.5-5.8,6.2-9.6c0.4-1.9-1.3-3.3-3.3-2.4C47.9,70.6,46.3,74.2,43.9,76.5z M39.4,76.4c2.5,0,4.6-2,4.6-4.4
	c0-2.4-2.1-4.4-4.6-4.4c-2.5,0-4.6,2-4.6,4.4C34.8,74.5,36.8,76.4,39.4,76.4z M44.2,93c0-2.4-2.1-4.4-4.6-4.4c-2.5,0-4.6,2-4.6,4.4
	c0,2.4,2.1,4.4,4.6,4.4C42.2,97.4,44.2,95.4,44.2,93z M55.3,94.4c-1.2-1.5-2.4-2-3.9-3.4c-1.5-1.5-2.6-3.8-4.2-4.5
	c-1.3-0.6-2.4,0.3-2.1,1.6c0.4,2.4,2.5,4.7,4,6.1c1.7,1.6,5,3.9,6.4,2.5C55.9,96.3,56.1,95.4,55.3,94.4z M152.7,45.6H0v1.2h152.7
	V45.6z M152.7,106.3H0v1.2h152.7V106.3z"/>
</svg>
