<?xml version="1.0" encoding="utf-8"?>
<!-- Generator: Adobe Illustrator 22.0.1, SVG Export Plug-In . SVG Version: 6.00 Build 0)  -->
<svg version="1.1" id="Layer_1" xmlns="http://www.w3.org/2000/svg" xmlns:xlink="http://www.w3.org/1999/xlink" x="0px" y="0px"
	 viewBox="0 0 278.5 44.8" style="enable-background:new 0 0 278.5 44.8;" xml:space="preserve">
<style type="text/css">
	.st0{fill:#9BA8B0;}
	.st1{fill:#1A1A18;}
</style>
<g>
	<g>
		<path class="st0" d="M9.8,1.3H0v32.3c0,2.6,0,5.7,2.3,7.9c2,2,5.5,2,8.2,2H26l7.7-7.7H9.8V1.3z"/>
		<path class="st0" d="M95.7,20.1c-2-2-5.7-2-8.3-2H65.7V9L96.5,9l0-7.8h-30c-1.7,0-5.3,0.2-7.3,2C57,5.4,57,9.1,57,10.9v4.9
			c0,2.6,0,5.9,2.3,8c2,1.8,5.7,2,7.2,2h22.8v10.1H72.5h-13H45V1.3h-9.8v32.3c0,2.5,0,5.7,2.3,7.9c2,2,5.5,2,8.2,2h13.9h2.6h26.5
			c1.3,0,5-0.2,7-2c1.6-1.5,2.3-3.6,2.3-6.8v-7.6C98,23.8,97.2,21.6,95.7,20.1z"/>
	</g>
	<g>
		<path class="st1" d="M250.5,35.8V1.3h-9.8v32.3c0,2.3-0.1,5.8,2.3,7.9c2.2,1.9,5.2,2,8.2,2h20.9l6.4-7.7H250.5z"/>
		<rect x="220.4" y="1.3" class="st1" width="9.8" height="42.3"/>
		<path class="st1" d="M183.3,0c-4.5,0-7.1,2.9-9,5.6l-20.9,32.1L140.5,27h2.2c1.5,0,5.3-0.1,7.2-2c2.3-2.3,2.3-5.1,2.3-7.6v-6.5
			c0-1.8,0-5.4-2.3-7.5c-2-1.8-5-2.1-7.4-2.1h-23.8h-9.8h0V9h0v34.6h9.8V9h24.8v10.7h-23l24.6,21.6c2.5,2.2,4.9,3.6,8.4,3.6
			c3.1,0,6.2-1.4,8.8-5.1L183,8.2l10.3,14.9h-14l-5.1,7.7h24.1l8.6,12.7h11.2L191.5,4.3C189.7,2,187.5,0,183.3,0z"/>
	</g>
</g>
</svg>
