<?xml version="1.0" standalone="no"?>
<!DOCTYPE svg PUBLIC "-//W3C//DTD SVG 20010904//EN"
 "http://www.w3.org/TR/2001/REC-SVG-20010904/DTD/svg10.dtd">
<svg version="1.0" xmlns="http://www.w3.org/2000/svg"
 width="700.000000pt" height="700.000000pt" viewBox="0 0 700.000000 700.000000"
 preserveAspectRatio="xMidYMid meet">
<metadata>
Created by potrace 1.11, written by Peter Selinger 2001-2013
</metadata>
<g transform="translate(0.000000,700.000000) scale(0.100000,-0.100000)"
fill="#000000" stroke="none">
<path d="M216 4921 c-6 -12 2 -2338 8 -2376 30 -194 115 -324 250 -385 139
-63 140 -63 841 -67 l640 -4 258 257 c141 141 257 257 257 259 0 2 -332 3
-737 4 -406 0 -766 0 -799 1 l-61 0 -1 1138 c0 625 -1 1146 -1 1158 -1 21 -3
21 -327 20 -179 0 -326 -2 -328 -5z"/>
<path d="M2582 4921 c-4 -4 -7 -532 -6 -1176 1 -1296 -1 -1256 66 -1393 67
-136 175 -207 378 -249 19 -4 753 -8 1630 -9 1711 -3 1664 -4 1818 47 120 40
219 133 262 246 45 120 49 173 46 583 -1 212 -6 401 -10 420 -57 260 -207 379
-511 405 -44 4 -430 7 -857 8 -706 0 -778 1 -779 16 -4 46 -4 568 -1 579 3 9
219 12 1036 12 l1031 0 0 260 0 261 -1080 -4 c-1046 -3 -1124 -5 -1210 -29
-22 -6 -45 -12 -52 -14 -37 -7 -128 -62 -164 -98 -123 -127 -147 -249 -144
-719 3 -347 11 -413 66 -525 72 -146 194 -216 434 -247 28 -3 413 -6 858 -7
l807 0 0 -338 0 -339 -1483 0 -1484 0 -1 1142 c0 628 -1 1149 -1 1158 -1 14
-35 16 -321 15 -176 0 -324 -2 -328 -5z"/>
</g>
</svg>
