<?xml version="1.0" encoding="utf-8"?>
<!-- Generator: Adobe Illustrator 22.0.1, SVG Export Plug-In . SVG Version: 6.00 Build 0)  -->
<svg version="1.1" id="Layer_1" xmlns="http://www.w3.org/2000/svg" xmlns:xlink="http://www.w3.org/1999/xlink" x="0px" y="0px"
	 viewBox="0 0 152 85.3" style="enable-background:new 0 0 152 85.3;" xml:space="preserve">
<style type="text/css">
	.st0{fill:url(#SVGID_1_);}
	.st1{fill:url(#SVGID_2_);}
	.st2{fill:url(#SVGID_3_);}
	.st3{fill:none;stroke:url(#SVGID_4_);stroke-width:1.2;stroke-miterlimit:10;}
	.st4{fill:url(#SVGID_5_);}
	.st5{fill:url(#SVGID_6_);}
	.st6{fill:url(#SVGID_7_);}
	.st7{fill:url(#SVGID_8_);}
</style>
<linearGradient id="SVGID_1_" gradientUnits="userSpaceOnUse" x1="0" y1="42.6436" x2="152.3867" y2="42.6436">
	<stop  offset="0" style="stop-color:#FFFFFF"/>
	<stop  offset="1" style="stop-color:#9BA8B0"/>
</linearGradient>
<path class="st0" d="M79.7,22.5c-2.4,0-4.3-1.9-4.3-4.3h1.2c0,1.7,1.4,3.1,3.1,3.1V22.5z M97.6,11l0.8-0.8c-1.7-1.7-4.4-1.7-6.1,0
	l0.8,0.8C94.5,9.8,96.4,9.8,97.6,11z M22.9,76.2L22,77c0.8,0.8,1.9,1.3,3.1,1.3c1.1,0,2.2-0.4,3.1-1.3l-0.8-0.8
	C26.1,77.3,24,77.3,22.9,76.2z M116.3,59.4h1.2c0-2.4-1.9-4.3-4.3-4.3v1.2C114.9,56.3,116.3,57.7,116.3,59.4z M110.9,23.8v-1.2
	c-1.7,0-3.1-1.4-3.1-3.1h-1.2C106.5,21.9,108.5,23.8,110.9,23.8z M102.3,37.6h1.2c0-2.4-1.9-4.3-4.3-4.3v1.2
	C100.9,34.5,102.3,35.9,102.3,37.6z M122.6,39.4l-0.8-0.8c-1.2,1.2-3.2,1.2-4.4,0l-0.8,0.8c0.8,0.8,1.9,1.3,3.1,1.3
	C120.6,40.6,121.7,40.2,122.6,39.4z M79.9,70.6h-1.2c0,2.4,1.9,4.3,4.3,4.3v-1.2C81.3,73.7,79.9,72.3,79.9,70.6z M100.7,75.7h-1.2
	c0,2.4,1.9,4.3,4.3,4.3v-1.2C102.1,78.8,100.7,77.4,100.7,75.7z M74.1,37v1.2c1.7,0,3.1,1.4,3.1,3.1h1.2C78.5,39,76.5,37,74.1,37z
	 M53.1,70.3v1.2c1.7,0,3.1,1.4,3.1,3.1h1.2C57.4,72.2,55.5,70.3,53.1,70.3z M69.3,56.6l-0.8,0.8c0.8,0.8,1.9,1.3,3.1,1.3
	c1.1,0,2.2-0.4,3.1-1.3l-0.8-0.8C72.5,57.8,70.5,57.8,69.3,56.6z M41.3,59.2h-1.2c0,2.4,1.9,4.3,4.3,4.3v-1.2
	C42.7,62.3,41.3,60.9,41.3,59.2z M54.5,46l0.8,0.8c1.2-1.2,3.2-1.2,4.4,0l0.8-0.8C59,44.3,56.2,44.3,54.5,46z M152.4,84.1v1.2H152
	H0.4H0v-1.2h0.4h4.5l37.4-52.4c1.4-2,3.7-3.2,6.2-3.2H62L72.2,4.6c1.2-2.8,3.9-4.6,7-4.6h30c3.1,0,5.9,1.9,7,4.7l32.4,79.4h3.4
	H152.4z M63.3,28.5h15.2c2.5,0,4.9,1.3,6.3,3.4l35.1,52.3h27.5L115.1,5.2c-1-2.4-3.3-4-5.9-4h-30c-2.6,0-4.9,1.5-5.9,3.9L63.3,28.5z
	 M6.4,84.1h112L83.8,32.5c-1.2-1.8-3.2-2.8-5.3-2.8h-30c-2.1,0-4,1-5.2,2.7L6.4,84.1z"/>
</svg>
