<?xml version="1.0" encoding="utf-8"?>
<!-- Generator: Adobe Illustrator 22.0.1, SVG Export Plug-In . SVG Version: 6.00 Build 0)  -->
<svg version="1.1" id="Layer_1" xmlns="http://www.w3.org/2000/svg" xmlns:xlink="http://www.w3.org/1999/xlink" x="0px" y="0px"
	 viewBox="0 0 152.9 74" style="enable-background:new 0 0 152.9 74;" xml:space="preserve">
<style type="text/css">
	.st0{fill:url(#SVGID_1_);}
	.st1{fill:url(#SVGID_2_);}
	.st2{fill:url(#SVGID_3_);}
	.st3{fill:none;stroke:url(#SVGID_4_);stroke-width:1.2;stroke-miterlimit:10;}
	.st4{fill:url(#SVGID_5_);}
	.st5{fill:url(#SVGID_6_);}
	.st6{fill:url(#SVGID_7_);}
	.st7{fill:url(#SVGID_8_);}
</style>
<linearGradient id="SVGID_1_" gradientUnits="userSpaceOnUse" x1="0" y1="37.0027" x2="152.9395" y2="37.0027">
	<stop  offset="0" style="stop-color:#FFFFFF"/>
	<stop  offset="1" style="stop-color:#9BA8B0"/>
</linearGradient>
<path style="fill:none;stroke:url(#SVGID_1_);stroke-width:1.2;stroke-miterlimit:10;" d="M22.9,58.5C22.8,55.1,26,46.1,27,42.3
	c0.8-3.3,7.2-6.7,10.6-8c8-3,7.2-3.4,3.6,1.4c-2.9,3.8-4.7,10.4-4.9,13.5c-0.4,5.7,3.2,22.9-8.7,24c-2,0.2-3.1,0.2-3.6,0 M2.8,45.4
	c2.5,2.8,6.6,7.6,6.9,9.9c0.7,5.4-2.2,9.9,1.8,14.1c2.3,2.4,5.3,3.8,7.9,3.6c7.3-0.8,4.8-11.5,3.1-14.5c-2.1-3.7-3.3-7.4-6.2-10
	c-2-1.8-8-3.2-11.7-5.1C-1.7,40.2,0.8,43.2,2.8,45.4L2.8,45.4z M13.9,8h2c1.2,0,2.2,0.9,2.1,2l-0.2,2.3c-0.1,1.1-0.9,2-2.1,2l-1.6,0
	c-1.2,0-2-0.9-2.1-2l-0.2-2.3C11.7,9,12.7,8,13.9,8L13.9,8z M12.4,14.9h2.7c1.1,0,2.2,1.1,2.1,2.4L17.1,20c-0.1,1.3-0.9,2.4-2.1,2.4
	l-2.4,0c-1.1,0-2-1.1-2.1-2.4l-0.2-2.7C10.3,16,11.3,14.9,12.4,14.9L12.4,14.9z M12.2,22.5h3.1c1.3,0,2.5,1.1,2.4,2.4l-0.2,2.7
	c-0.1,1.3-1.1,2.4-2.4,2.4l-2.8,0c-1.3,0-2.3-1.1-2.4-2.4l-0.2-2.7C9.7,23.5,10.9,22.5,12.2,22.5L12.2,22.5z M12.2,30.4l3.1,0
	c1.3,0,2.5,1.1,2.4,2.4l-0.2,2.7c-0.1,1.3-1.1,2.4-2.4,2.4l-2.8,0c-1.3,0-2.3-1.1-2.4-2.4l-0.2-2.7C9.7,31.5,10.9,30.4,12.2,30.4
	L12.2,30.4z M12.2,38.3l3.1,0c1.3,0,2.5,1.1,2.4,2.4l-0.2,2.7c-0.1,1.3-0.5,2.4-2.4,2.4l-2.8,0c-1.3,0-2.3-1.1-2.4-2.4l-0.2-2.7
	C9.7,39.4,10.9,38.3,12.2,38.3L12.2,38.3z M20.9,7.5l1.7,0c1.4,0,2.6,1.1,2.5,2.5l-0.2,2.2c-0.2,1.4-1.1,2.5-2.5,2.5l-1.4,0
	c-1.4,0-2.4-1.1-2.5-2.5L18.4,10C18.3,8.6,19.5,7.5,20.9,7.5L20.9,7.5z M20.1,14.6l3.2,0c1.3,0,2.5,1.1,2.4,2.4l-0.2,2.8
	c-0.1,1.3-1.1,2.4-2.4,2.4l-2.8,0c-1.3,0-2.4-1.1-2.4-2.4L17.7,17C17.6,15.7,18.8,14.6,20.1,14.6L20.1,14.6z M20.2,22.8l3.1,0
	c1.3,0,2.5,1.1,2.4,2.4l-0.2,2.7c-0.1,1.3-1.1,2.4-2.4,2.4l-2.8,0c-1.3,0-2.3-1.1-2.4-2.4l-0.2-2.7C17.7,23.9,18.9,22.8,20.2,22.8
	L20.2,22.8z M20.2,30.7l3.1,0c1.3,0,2.5,1.1,2.4,2.4l-0.2,2.7c-0.1,1.3-1.1,2.4-2.4,2.4l-2.8,0c-1.3,0-2.3-1.1-2.4-2.4l-0.2-2.7
	C17.7,31.8,18.9,30.7,20.2,30.7L20.2,30.7z M20.5,38.3l3.1,0c1.8,0,2.5,0.5,2.4,2.4l-0.2,2.7c-0.1,1.3-1.1,2.4-2.4,2.4l-2.8,0
	c-1.3,0-2.3-1.1-2.4-2.4l-0.2-2.7C18.1,39.4,19.2,38.3,20.5,38.3L20.5,38.3z M27.2,7.7l2,0c1.2,0,2.2,1,2.2,2.1l-0.2,2.4
	c-0.1,1.2-1,2.1-2.2,2.1h-1.7c-1.2,0-2.1-0.9-2.2-2.1L25,9.8C24.9,8.6,26,7.7,27.2,7.7L27.2,7.7z M28.3,14.8l2.7,0
	c1.1,0,2.2,1.1,2.1,2.4l-0.2,2.7c-0.1,1.3-0.9,2.4-2.1,2.4l-2.4,0c-1.1,0-2-1.1-2.1-2.4l-0.2-2.7C26.1,15.9,27.1,14.8,28.3,14.8
	L28.3,14.8z M28.1,22.4l3.1,0c1.3,0,2.5,1.1,2.4,2.4l-0.2,2.7c-0.1,1.3-1.1,2.4-2.4,2.4l-2.8,0c-1.3,0-2.3-1.1-2.4-2.4l-0.2-2.7
	C25.7,23.5,26.8,22.4,28.1,22.4L28.1,22.4z M28.2,30.4l3.1,0c1.3,0,2.6,1.1,2.4,2.4l-0.2,1c-0.2,1.3-2.8,3.7-4.1,4.1L28,38.2
	c-1.3,0.3-1.9-1.5-2-2.8l-0.2-2.7C25.8,31.5,26.9,30.4,28.2,30.4L28.2,30.4z M20.7,45.7h3.1c1.3,0,2.1,0.2,1.8,1.4l-0.8,2.9
	c-0.3,1.3-1.3,4.4-2.6,4.2l-0.9-0.1c-1.3-0.1-1.9-2.6-2.5-3.7l-1.4-2.9C16.9,46.4,19.4,45.7,20.7,45.7L20.7,45.7z M19.1,7.2l-2,0
	c-1.2,0-2.3-0.9-2.1-2l0.5-2.3c0.2-1.1,0.9-2,2.1-2l1.6,0c1.1,0,2.2,0.9,2.1,2l-0.1,2.3C21.2,6.3,20.3,7.2,19.1,7.2L19.1,7.2z
	 M26.2,7h-2c-1.2,0-2.1-0.9-2.1-2l-0.1-2.3c0-1.1,0.9-2,2.1-2l1.6,0c1.2,0,1.9,0.9,2.1,2L28.3,5C28.5,6.1,27.4,7,26.2,7L26.2,7z
	 M59.1,58.5c-0.1-3.5,3.1-12.5,4.1-16.2c0.8-3.3,7.2-6.7,10.6-8c8-3,7.2-3.4,3.6,1.4c-2.9,3.8-4.7,10.4-4.9,13.5
	c-0.4,5.7,3.2,22.9-8.7,24c-2,0.2-3.1,0.2-3.6,0 M39,45.4c2.5,2.8,6.6,7.6,6.9,9.9c0.7,5.4-2.2,9.9,1.8,14.1
	c2.3,2.4,5.3,3.8,7.9,3.6c7.3-0.8,4.8-11.5,3.1-14.5c-2.1-3.7-3.3-7.4-6.2-10c-2-1.8-8-3.2-11.7-5.1C34.5,40.2,37,43.2,39,45.4
	L39,45.4z M50.1,8h2c1.2,0,2.2,0.9,2.1,2L54,12.4c-0.1,1.1-0.9,2-2.1,2l-1.6,0c-1.2,0-2-0.9-2.1-2L48,10.1C47.9,9,48.9,8,50.1,8
	L50.1,8z M48.6,14.9h2.7c1.1,0,2.2,1.1,2.1,2.4L53.3,20c-0.1,1.3-0.9,2.4-2.1,2.4l-2.4,0c-1.1,0-2-1.1-2.1-2.4l-0.2-2.7
	C46.5,16,47.5,14.9,48.6,14.9L48.6,14.9z M48.4,22.5h3.1c1.3,0,2.5,1.1,2.4,2.4l-0.2,2.7c-0.1,1.3-1.1,2.4-2.4,2.4l-2.8,0
	c-1.3,0-2.3-1.1-2.4-2.4L46,24.8C45.9,23.5,47.1,22.5,48.4,22.5L48.4,22.5z M48.4,30.4l3.1,0c1.3,0,2.5,1.1,2.4,2.4l-0.2,2.7
	c-0.1,1.3-1.1,2.4-2.4,2.4l-2.8,0c-1.3,0-2.3-1.1-2.4-2.4L46,32.8C45.9,31.5,47.1,30.4,48.4,30.4L48.4,30.4z M48.4,38.3l3.1,0
	c1.3,0,2.5,1.1,2.4,2.4l-0.2,2.7c-0.1,1.3-0.5,2.4-2.4,2.4l-2.8,0c-1.3,0-2.3-1.1-2.4-2.4L46,40.7C45.9,39.4,47.1,38.3,48.4,38.3
	L48.4,38.3z M57.1,7.5l1.7,0c1.4,0,2.6,1.1,2.5,2.5l-0.2,2.2c-0.2,1.4-1.1,2.5-2.5,2.5l-1.4,0c-1.4,0-2.4-1.1-2.5-2.5L54.6,10
	C54.5,8.6,55.7,7.5,57.1,7.5L57.1,7.5z M56.3,14.6l3.2,0c1.3,0,2.5,1.1,2.4,2.4l-0.2,2.8c-0.1,1.3-1.1,2.4-2.4,2.4l-2.8,0
	c-1.3,0-2.4-1.1-2.4-2.4L53.8,17C53.8,15.7,54.9,14.6,56.3,14.6L56.3,14.6z M56.3,22.8l3.1,0c1.3,0,2.5,1.1,2.4,2.4l-0.2,2.7
	c-0.1,1.3-1.1,2.4-2.4,2.4l-2.8,0c-1.3,0-2.3-1.1-2.4-2.4L54,25.2C53.9,23.9,55,22.8,56.3,22.8L56.3,22.8z M56.3,30.7l3.1,0
	c1.3,0,2.5,1.1,2.4,2.4l-0.2,2.7c-0.1,1.3-1.1,2.4-2.4,2.4l-2.8,0c-1.3,0-2.3-1.1-2.4-2.4L54,33.1C53.9,31.8,55,30.7,56.3,30.7
	L56.3,30.7z M56.7,38.3l3.1,0c1.8,0,2.5,0.5,2.4,2.4L62,43.4c-0.1,1.3-1.1,2.4-2.4,2.4l-2.8,0c-1.3,0-2.3-1.1-2.4-2.4l-0.2-2.7
	C54.2,39.4,55.4,38.3,56.7,38.3L56.7,38.3z M63.4,7.7l2,0c1.2,0,2.2,1,2.2,2.1l-0.2,2.4c-0.1,1.2-1,2.1-2.2,2.1h-1.7
	c-1.2,0-2.1-0.9-2.2-2.1l-0.2-2.4C61.1,8.6,62.2,7.7,63.4,7.7L63.4,7.7z M64.5,14.8l2.7,0c1.1,0,2.2,1.1,2.1,2.4l-0.2,2.7
	c-0.1,1.3-0.9,2.4-2.1,2.4l-2.4,0c-1.1,0-2-1.1-2.1-2.4l-0.2-2.7C62.3,15.9,63.3,14.8,64.5,14.8L64.5,14.8z M64.3,22.4l3.1,0
	c1.3,0,2.5,1.1,2.4,2.4l-0.2,2.7c-0.1,1.3-1.1,2.4-2.4,2.4l-2.8,0c-1.3,0-2.3-1.1-2.4-2.4L62,24.8C61.9,23.5,63,22.4,64.3,22.4
	L64.3,22.4z M64.4,30.4l3.1,0c1.3,0,2.6,1.1,2.4,2.4l-0.2,1c-0.2,1.3-2.8,3.7-4.1,4.1l-1.4,0.4c-1.3,0.3-1.9-1.5-2-2.8l-0.2-2.7
	C62,31.5,63.1,30.4,64.4,30.4L64.4,30.4z M56.9,45.7H60c1.3,0,2.1,0.2,1.8,1.4l-0.8,2.9c-0.3,1.3-1.3,4.4-2.6,4.2l-0.9-0.1
	c-1.3-0.1-1.9-2.6-2.5-3.7l-1.4-2.9C53.1,46.4,55.6,45.7,56.9,45.7L56.9,45.7z M55.3,7.2l-2,0c-1.2,0-2.3-0.9-2.1-2l0.5-2.3
	c0.2-1.1,0.9-2,2.1-2l1.6,0c1.1,0,2.2,0.9,2.1,2l-0.1,2.3C57.4,6.3,56.5,7.2,55.3,7.2L55.3,7.2z M62.4,7h-2c-1.2,0-2.1-0.9-2.1-2
	l-0.1-2.3c0-1.1,0.9-2,2.1-2l1.6,0c1.2,0,1.9,0.9,2.1,2L64.5,5C64.7,6.1,63.5,7,62.4,7L62.4,7z M95.3,58.5
	c-0.1-3.5,3.1-12.5,4.1-16.2c0.8-3.3,7.2-6.7,10.6-8c8-3,7.2-3.4,3.6,1.4c-2.9,3.8-4.7,10.4-4.9,13.5c-0.4,5.7,3.2,22.9-8.7,24
	c-2,0.2-3.1,0.2-3.6,0 M75.1,45.4c2.5,2.8,6.6,7.6,6.9,9.9c0.7,5.4-2.2,9.9,1.8,14.1c2.3,2.4,5.3,3.8,7.9,3.6
	c7.3-0.8,4.8-11.5,3.1-14.5c-2.1-3.7-3.3-7.4-6.2-10c-2-1.8-8-3.2-11.7-5.1C70.7,40.2,73.2,43.2,75.1,45.4L75.1,45.4z M86.3,8h2
	c1.2,0,2.2,0.9,2.1,2l-0.2,2.3c-0.1,1.1-0.9,2-2.1,2l-1.6,0c-1.2,0-2-0.9-2.1-2l-0.2-2.3C84.1,9,85.1,8,86.3,8L86.3,8z M84.8,14.9
	h2.7c1.1,0,2.2,1.1,2.1,2.4L89.5,20c-0.1,1.3-0.9,2.4-2.1,2.4l-2.4,0c-1.1,0-2-1.1-2.1-2.4l-0.2-2.7C82.7,16,83.7,14.9,84.8,14.9
	L84.8,14.9z M84.5,22.5h3.1c1.3,0,2.5,1.1,2.4,2.4l-0.2,2.7c-0.1,1.3-1.1,2.4-2.4,2.4l-2.8,0c-1.3,0-2.3-1.1-2.4-2.4l-0.2-2.7
	C82.1,23.5,83.2,22.5,84.5,22.5L84.5,22.5z M84.5,30.4l3.1,0c1.3,0,2.5,1.1,2.4,2.4l-0.2,2.7c-0.1,1.3-1.1,2.4-2.4,2.4l-2.8,0
	c-1.3,0-2.3-1.1-2.4-2.4l-0.2-2.7C82.1,31.5,83.2,30.4,84.5,30.4L84.5,30.4z M84.5,38.3l3.1,0c1.3,0,2.5,1.1,2.4,2.4l-0.2,2.7
	c-0.1,1.3-0.5,2.4-2.4,2.4l-2.8,0c-1.3,0-2.3-1.1-2.4-2.4l-0.2-2.7C82.1,39.4,83.2,38.3,84.5,38.3L84.5,38.3z M93.3,7.5l1.7,0
	c1.4,0,2.6,1.1,2.5,2.5l-0.2,2.2c-0.2,1.4-1.1,2.5-2.5,2.5l-1.4,0c-1.4,0-2.4-1.1-2.5-2.5L90.8,10C90.7,8.6,91.9,7.5,93.3,7.5
	L93.3,7.5z M92.5,14.6l3.2,0c1.3,0,2.5,1.1,2.4,2.4L98,19.8c-0.1,1.3-1.1,2.4-2.4,2.4l-2.8,0c-1.3,0-2.4-1.1-2.4-2.4L90,17
	C89.9,15.7,91.1,14.6,92.5,14.6L92.5,14.6z M92.5,22.8l3.1,0c1.3,0,2.5,1.1,2.4,2.4l-0.2,2.7c-0.1,1.3-1.1,2.4-2.4,2.4l-2.8,0
	c-1.3,0-2.3-1.1-2.4-2.4l-0.2-2.7C90.1,23.9,91.2,22.8,92.5,22.8L92.5,22.8z M92.5,30.7l3.1,0c1.3,0,2.5,1.1,2.4,2.4l-0.2,2.7
	c-0.1,1.3-1.1,2.4-2.4,2.4l-2.8,0c-1.3,0-2.3-1.1-2.4-2.4l-0.2-2.7C90.1,31.8,91.2,30.7,92.5,30.7L92.5,30.7z M92.9,38.3l3.1,0
	c1.8,0,2.5,0.5,2.4,2.4l-0.2,2.7c-0.1,1.3-1.1,2.4-2.4,2.4l-2.8,0c-1.3,0-2.3-1.1-2.4-2.4l-0.2-2.7C90.4,39.4,91.6,38.3,92.9,38.3
	L92.9,38.3z M99.6,7.7l2,0c1.2,0,2.2,1,2.2,2.1l-0.2,2.4c-0.1,1.2-1,2.1-2.2,2.1h-1.7c-1.2,0-2.1-0.9-2.2-2.1l-0.2-2.4
	C97.3,8.6,98.4,7.7,99.6,7.7L99.6,7.7z M100.6,14.8l2.7,0c1.1,0,2.2,1.1,2.1,2.4l-0.2,2.7c-0.1,1.3-0.9,2.4-2.1,2.4l-2.4,0
	c-1.1,0-2-1.1-2.1-2.4l-0.2-2.7C98.5,15.9,99.5,14.8,100.6,14.8L100.6,14.8z M100.5,22.4l3.1,0c1.3,0,2.5,1.1,2.4,2.4l-0.2,2.7
	c-0.1,1.3-1.1,2.4-2.4,2.4l-2.8,0c-1.3,0-2.3-1.1-2.4-2.4l-0.2-2.7C98.1,23.5,99.2,22.4,100.5,22.4L100.5,22.4z M100.6,30.4l3.1,0
	c1.3,0,2.6,1.1,2.4,2.4l-0.2,1c-0.2,1.3-2.8,3.7-4.1,4.1l-1.4,0.4c-1.3,0.3-1.9-1.5-2-2.8l-0.2-2.7C98.2,31.5,99.3,30.4,100.6,30.4
	L100.6,30.4z M93.1,45.7h3.1c1.3,0,2.1,0.2,1.8,1.4l-0.8,2.9c-0.3,1.3-1.3,4.4-2.6,4.2l-0.9-0.1c-1.3-0.1-1.9-2.6-2.5-3.7l-1.4-2.9
	C89.3,46.4,91.8,45.7,93.1,45.7L93.1,45.7z M91.5,7.2l-2,0c-1.2,0-2.3-0.9-2.1-2l0.5-2.3c0.2-1.1,0.9-2,2.1-2l1.6,0
	c1.1,0,2.2,0.9,2.1,2l-0.1,2.3C93.5,6.3,92.7,7.2,91.5,7.2L91.5,7.2z M98.6,7h-2c-1.2,0-2.1-0.9-2.1-2l-0.1-2.3c0-1.1,0.9-2,2.1-2
	l1.6,0c1.2,0,1.9,0.9,2.1,2l0.4,2.3C100.9,6.1,99.7,7,98.6,7L98.6,7z M131.5,58.5c-0.1-3.5,3.1-12.5,4.1-16.2
	c0.8-3.3,7.2-6.7,10.6-8c8-3,7.2-3.4,3.6,1.4c-2.9,3.8-4.7,10.4-4.9,13.5c-0.4,5.7,3.2,22.9-8.7,24c-2,0.2-3.1,0.2-3.6,0
	 M111.3,45.4c2.5,2.8,6.6,7.6,6.9,9.9c0.7,5.4-2.2,9.9,1.8,14.1c2.3,2.4,5.3,3.8,7.9,3.6c7.3-0.8,4.8-11.5,3.1-14.5
	c-2.1-3.7-3.3-7.4-6.2-10c-2-1.8-8-3.2-11.7-5.1C106.9,40.2,109.4,43.2,111.3,45.4L111.3,45.4z M122.4,8h2c1.2,0,2.2,0.9,2.1,2
	l-0.2,2.3c-0.1,1.1-0.9,2-2.1,2l-1.6,0c-1.2,0-2-0.9-2.1-2l-0.2-2.3C120.3,9,121.3,8,122.4,8L122.4,8z M121,14.9h2.7
	c1.1,0,2.2,1.1,2.1,2.4l-0.2,2.7c-0.1,1.3-0.9,2.4-2.1,2.4l-2.4,0c-1.1,0-2-1.1-2.1-2.4l-0.2-2.7C118.8,16,119.9,14.9,121,14.9
	L121,14.9z M120.7,22.5h3.1c1.3,0,2.5,1.1,2.4,2.4l-0.2,2.7c-0.1,1.3-1.1,2.4-2.4,2.4l-2.8,0c-1.3,0-2.3-1.1-2.4-2.4l-0.2-2.7
	C118.3,23.5,119.4,22.5,120.7,22.5L120.7,22.5z M120.7,30.4l3.1,0c1.3,0,2.5,1.1,2.4,2.4l-0.2,2.7c-0.1,1.3-1.1,2.4-2.4,2.4l-2.8,0
	c-1.3,0-2.3-1.1-2.4-2.4l-0.2-2.7C118.3,31.5,119.4,30.4,120.7,30.4L120.7,30.4z M120.7,38.3l3.1,0c1.3,0,2.5,1.1,2.4,2.4l-0.2,2.7
	c-0.1,1.3-0.5,2.4-2.4,2.4l-2.8,0c-1.3,0-2.3-1.1-2.4-2.4l-0.2-2.7C118.3,39.4,119.4,38.3,120.7,38.3L120.7,38.3z M129.5,7.5l1.7,0
	c1.4,0,2.6,1.1,2.5,2.5l-0.2,2.2c-0.2,1.4-1.1,2.5-2.5,2.5l-1.4,0c-1.4,0-2.4-1.1-2.5-2.5L127,10C126.9,8.6,128.1,7.5,129.5,7.5
	L129.5,7.5z M128.7,14.6l3.2,0c1.3,0,2.5,1.1,2.4,2.4l-0.2,2.8c-0.1,1.3-1.1,2.4-2.4,2.4l-2.8,0c-1.3,0-2.4-1.1-2.4-2.4l-0.2-2.8
	C126.1,15.7,127.3,14.6,128.7,14.6L128.7,14.6z M128.7,22.8l3.1,0c1.3,0,2.5,1.1,2.4,2.4l-0.2,2.7c-0.1,1.3-1.1,2.4-2.4,2.4l-2.8,0
	c-1.3,0-2.3-1.1-2.4-2.4l-0.2-2.7C126.3,23.9,127.4,22.8,128.7,22.8L128.7,22.8z M128.7,30.7l3.1,0c1.3,0,2.5,1.1,2.4,2.4l-0.2,2.7
	c-0.1,1.3-1.1,2.4-2.4,2.4l-2.8,0c-1.3,0-2.3-1.1-2.4-2.4l-0.2-2.7C126.3,31.8,127.4,30.7,128.7,30.7L128.7,30.7z M129.1,38.3l3.1,0
	c1.8,0,2.5,0.5,2.4,2.4l-0.2,2.7c-0.1,1.3-1.1,2.4-2.4,2.4l-2.8,0c-1.3,0-2.3-1.1-2.4-2.4l-0.2-2.7
	C126.6,39.4,127.8,38.3,129.1,38.3L129.1,38.3z M135.8,7.7l2,0c1.2,0,2.2,1,2.2,2.1l-0.2,2.4c-0.1,1.2-1,2.1-2.2,2.1h-1.7
	c-1.2,0-2.1-0.9-2.2-2.1l-0.2-2.4C133.5,8.6,134.6,7.7,135.8,7.7L135.8,7.7z M136.8,14.8l2.7,0c1.1,0,2.2,1.1,2.1,2.4l-0.2,2.7
	c-0.1,1.3-0.9,2.4-2.1,2.4l-2.4,0c-1.1,0-2-1.1-2.1-2.4l-0.2-2.7C134.7,15.9,135.7,14.8,136.8,14.8L136.8,14.8z M136.7,22.4l3.1,0
	c1.3,0,2.5,1.1,2.4,2.4l-0.2,2.7c-0.1,1.3-1.1,2.4-2.4,2.4l-2.8,0c-1.3,0-2.3-1.1-2.4-2.4l-0.2-2.7
	C134.3,23.5,135.4,22.4,136.7,22.4L136.7,22.4z M136.8,30.4l3.1,0c1.3,0,2.6,1.1,2.4,2.4l-0.2,1c-0.2,1.3-2.8,3.7-4.1,4.1l-1.4,0.4
	c-1.3,0.3-1.9-1.5-2-2.8l-0.2-2.7C134.3,31.5,135.5,30.4,136.8,30.4L136.8,30.4z M129.3,45.7h3.1c1.3,0,2.1,0.2,1.8,1.4l-0.8,2.9
	c-0.3,1.3-1.3,4.4-2.6,4.2l-0.9-0.1c-1.3-0.1-1.9-2.6-2.5-3.7l-1.4-2.9C125.4,46.4,128,45.7,129.3,45.7L129.3,45.7z M127.7,7.2l-2,0
	c-1.2,0-2.3-0.9-2.1-2l0.5-2.3c0.2-1.1,0.9-2,2.1-2l1.6,0c1.1,0,2.2,0.9,2.1,2l-0.1,2.3C129.7,6.3,128.9,7.2,127.7,7.2L127.7,7.2z
	 M134.8,7h-2c-1.2,0-2.1-0.9-2.1-2l-0.1-2.3c0-1.1,0.9-2,2.1-2l1.6,0c1.2,0,1.9,0.9,2.1,2l0.4,2.3C137.1,6.1,135.9,7,134.8,7
	L134.8,7z"/>
</svg>
