<?xml version="1.0" encoding="utf-8"?>
<!-- Generator: Adobe Illustrator 22.0.1, SVG Export Plug-In . SVG Version: 6.00 Build 0)  -->
<svg version="1.1" id="Layer_1" xmlns="http://www.w3.org/2000/svg" xmlns:xlink="http://www.w3.org/1999/xlink" x="0px" y="0px"
	 viewBox="0 0 152 83.6" style="enable-background:new 0 0 152 83.6;" xml:space="preserve">
<style type="text/css">
	.st0{fill:url(#SVGID_1_);}
	.st1{fill:url(#SVGID_2_);}
	.st2{fill:url(#SVGID_3_);}
	.st3{fill:none;stroke:url(#SVGID_4_);stroke-width:1.2;stroke-miterlimit:10;}
	.st4{fill:url(#SVGID_5_);}
	.st5{fill:url(#SVGID_6_);}
	.st6{fill:url(#SVGID_7_);}
	.st7{fill:url(#SVGID_8_);}
</style>
<linearGradient id="SVGID_1_" gradientUnits="userSpaceOnUse" x1="0" y1="41.7956" x2="152" y2="41.7956">
	<stop  offset="0" style="stop-color:#FFFFFF"/>
	<stop  offset="1" style="stop-color:#9BA8B0"/>
</linearGradient>
<path class="st0" d="M147.2,1.3v60.2H6.2V1.3L4.9,0v62.9h143.6V0L147.2,1.3z M13.9,65.5H2.5v-1.3h11.4V65.5z M138.1,64.2h11.4v1.3
	h-11.4V64.2z M100.4,65.5H51.6v-1.3h48.8V65.5z M89.5,73H63.8v-1.3h25.7V73z M64.7,64.2V73h-0.9v-8.8H64.7z M53.3,64.2l10.5,7.6V73
	l-12.2-8.8H53.3z M1.3,68.7H0V61h1.3V68.7z M2.6,65.8l-1.3,3V61l1.3,3V65.8z M44.4,67.6c4.4,0,8,3.6,8,8c0,4.4-3.6,8-8,8
	c-4.4,0-8-3.6-8-8C36.4,71.2,40,67.6,44.4,67.6z M37.9,75.6c0,3.6,2.9,6.5,6.5,6.5c3.6,0,6.5-2.9,6.5-6.5c0-3.6-2.9-6.5-6.5-6.5
	C40.8,69.1,37.9,72,37.9,75.6z M44.4,70.2c3,0,5.5,2.4,5.5,5.4c0,3-2.4,5.4-5.5,5.4c-3,0-5.4-2.4-5.4-5.4
	C38.9,72.6,41.4,70.2,44.4,70.2z M29.1,75.6c0,4.4-3.6,8-8,8s-8-3.6-8-8c0-4.4,3.6-8,8-8S29.1,71.2,29.1,75.6z M21.1,69.1
	c-3.6,0-6.5,2.9-6.5,6.5c0,3.6,2.9,6.5,6.5,6.5c3.6,0,6.5-2.9,6.5-6.5C27.6,72,24.7,69.1,21.1,69.1z M26.6,75.6c0,3-2.4,5.4-5.4,5.4
	c-3,0-5.5-2.4-5.5-5.4c0-3,2.4-5.4,5.5-5.4C24.2,70.2,26.6,72.6,26.6,75.6z M51.6,64.2v2l-1.7,2c-1.5-1.1-3.4-1.8-5.5-1.8
	c-5.1,0-9.2,4.1-9.2,9.2c0,0.2,0,0.3,0,0.5h-4.3c0-0.2,0-0.3,0-0.5c0-5.1-4.1-9.2-9.2-9.2c-2.2,0-4.2,0.8-5.8,2.1l-2-2.2v-2H51.6z
	 M33.9,74.7c0.4-4.4,3.4-8,7.5-9.2H24.7c4.1,1.2,7.1,4.9,7.5,9.2H33.9z M16.1,66.7c0.8-0.5,1.7-0.9,2.6-1.2h-3.4v0.2L16.1,66.7z
	 M50.3,65.7v-0.2h-2.9c0.8,0.2,1.5,0.6,2.2,1L50.3,65.7z M150.7,61h1.3v7.8h-1.3V61z M149.4,64l1.3-3v7.8l-1.3-3V64z M115.6,75.6
	c0,4.4-3.6,8-8,8c-4.4,0-8-3.6-8-8c0-4.4,3.6-8,8-8C112,67.6,115.6,71.2,115.6,75.6z M107.6,69.1c-3.6,0-6.5,2.9-6.5,6.5
	c0,3.6,2.9,6.5,6.5,6.5c3.6,0,6.5-2.9,6.5-6.5C114.1,72,111.2,69.1,107.6,69.1z M113.1,75.6c0,3-2.4,5.4-5.4,5.4
	c-3,0-5.5-2.4-5.5-5.4c0-3,2.4-5.4,5.5-5.4C110.6,70.2,113.1,72.6,113.1,75.6z M130.9,67.6c4.4,0,8,3.6,8,8c0,4.4-3.6,8-8,8
	s-8-3.6-8-8C122.9,71.2,126.4,67.6,130.9,67.6z M124.4,75.6c0,3.6,2.9,6.5,6.5,6.5c3.6,0,6.5-2.9,6.5-6.5c0-3.6-2.9-6.5-6.5-6.5
	C127.3,69.1,124.4,72,124.4,75.6z M130.9,70.2c3,0,5.5,2.4,5.5,5.4c0,3-2.4,5.4-5.5,5.4c-3,0-5.4-2.4-5.4-5.4
	C125.4,72.6,127.8,70.2,130.9,70.2z M138.1,64.2v2l-2,2.2c-1.6-1.3-3.6-2.1-5.8-2.1c-5.1,0-9.2,4.1-9.2,9.2c0,0.2,0,0.3,0,0.5h-4.3
	c0-0.2,0-0.3,0-0.5c0-5.1-4.1-9.2-9.2-9.2c-2.1,0-3.9,0.7-5.5,1.8l-1.7-2v-2H138.1z M119.8,74.7c0.4-4.4,3.4-8,7.5-9.2h-16.6
	c4.1,1.2,7.1,4.9,7.5,9.2H119.8z M136.8,65.7v-0.2h-3.4c0.9,0.3,1.8,0.7,2.6,1.2L136.8,65.7z M102.4,66.5c0.7-0.4,1.4-0.7,2.2-1
	h-2.9v0.2L102.4,66.5z M89.6,64.2V73h-0.9v-8.8H89.6z M101.8,64.2L89.5,73v-1.3l10.5-7.6H101.8z M144.5,4v12.9v1.9v40.2h-29.7V4
	l-1.3-1.3v57.6h32.3V2.6L144.5,4z M110.9,4v12.9v1.9v40.2H42.4V18.7v-1.9V4l-1.3-1.3v57.6h71.1v-42l0,0l0,0V2.6L110.9,4z M38.5,4
	v54.9H8.8V18.7v-1.9V4L7.5,2.6v57.6h32.3V2.6L38.5,4z M35.8,45v10H11.5V45H35.8 M37,43.8H10.3v12.4H37V43.8L37,43.8z M141.9,45v10
	h-24.3V45H141.9 M143.1,43.8h-26.7v12.4h26.7V43.8L143.1,43.8z M108.3,45v10H45V45H108.3 M109.5,43.8H43.8v12.4h65.7V43.8
	L109.5,43.8z M35.8,30.3v10H11.5v-10H35.8 M37,29.1H10.3v12.4H37V29.1L37,29.1z M141.9,30.3v10h-24.3v-10H141.9 M143.1,29.1h-26.7
	v12.4h26.7V29.1L143.1,29.1z M108.3,30.3v10H45v-10H108.3 M109.5,29.1H43.8v12.4h65.7V29.1L109.5,29.1z M35.8,15.6v10H11.5v-10H35.8
	 M37,14.4H10.3v12.4H37V14.4L37,14.4z M141.9,15.6v10h-24.3v-10H141.9 M143.1,14.4h-26.7v12.4h26.7V14.4L143.1,14.4z M108.3,15.6v10
	H45v-10H108.3 M109.5,14.4H43.8v12.4h65.7V14.4L109.5,14.4z"/>
</svg>
