<?xml version="1.0" encoding="utf-8"?>
<!-- Generator: Adobe Illustrator 22.0.1, SVG Export Plug-In . SVG Version: 6.00 Build 0)  -->
<svg version="1.1" id="Layer_1" xmlns="http://www.w3.org/2000/svg" xmlns:xlink="http://www.w3.org/1999/xlink" x="0px" y="0px"
	 viewBox="0 0 152 62.5" style="enable-background:new 0 0 152 62.5;" xml:space="preserve">
<style type="text/css">
	.st0{fill:url(#SVGID_1_);}
	.st1{fill:url(#SVGID_2_);}
	.st2{fill:url(#SVGID_3_);}
	.st3{fill:none;stroke:url(#SVGID_4_);stroke-width:1.2;stroke-miterlimit:10;}
	.st4{fill:url(#SVGID_5_);}
	.st5{fill:url(#SVGID_6_);}
	.st6{fill:url(#SVGID_7_);}
	.st7{fill:url(#SVGID_8_);}
</style>
<linearGradient id="SVGID_1_" gradientUnits="userSpaceOnUse" x1="11.1703" y1="57.184" x2="144.4999" y2="-2.9633">
	<stop  offset="0" style="stop-color:#FFFFFF"/>
	<stop  offset="1" style="stop-color:#9BA8B0"/>
</linearGradient>
<path class="st0" d="M13.9,44.4H2.5v-1.3h11.4V44.4z M138.1,43.1h11.4v1.3h-11.4V43.1z M100.4,44.4H51.6v-1.3h48.8V44.4z M89.5,51.9
	H63.8v-1.3h25.7V51.9z M64.7,43.1v8.8h-0.9v-8.8H64.7z M53.3,43.1l10.5,7.6v1.3l-12.2-8.8H53.3z M1.3,47.6H0v-7.8h1.3V47.6z
	 M2.6,44.7l-1.3,3v-7.8l1.3,3V44.7z M44.4,46.5c4.4,0,8,3.6,8,8c0,4.4-3.6,8-8,8c-4.4,0-8-3.6-8-8C36.4,50.1,40,46.5,44.4,46.5z
	 M37.9,54.5c0,3.6,2.9,6.5,6.5,6.5c3.6,0,6.5-2.9,6.5-6.5c0-3.6-2.9-6.5-6.5-6.5C40.8,48,37.9,50.9,37.9,54.5z M44.4,49
	c3,0,5.5,2.4,5.5,5.4c0,3-2.4,5.4-5.5,5.4c-3,0-5.4-2.4-5.4-5.4C38.9,51.5,41.4,49,44.4,49z M29.1,54.5c0,4.4-3.6,8-8,8s-8-3.6-8-8
	c0-4.4,3.6-8,8-8S29.1,50.1,29.1,54.5z M21.1,48c-3.6,0-6.5,2.9-6.5,6.5c0,3.6,2.9,6.5,6.5,6.5c3.6,0,6.5-2.9,6.5-6.5
	C27.6,50.9,24.7,48,21.1,48z M26.6,54.5c0,3-2.4,5.4-5.4,5.4c-3,0-5.5-2.4-5.5-5.4c0-3,2.4-5.4,5.5-5.4C24.2,49,26.6,51.5,26.6,54.5
	z M51.6,43.1v2l-1.7,2c-1.5-1.1-3.4-1.8-5.5-1.8c-5.1,0-9.2,4.1-9.2,9.2c0,0.2,0,0.3,0,0.5h-4.3c0-0.2,0-0.3,0-0.5
	c0-5.1-4.1-9.2-9.2-9.2c-2.2,0-4.2,0.8-5.8,2.1l-2-2.2v-2H51.6z M33.9,53.6c0.4-4.4,3.4-8,7.5-9.2H24.7c4.1,1.2,7.1,4.9,7.5,9.2
	H33.9z M16.1,45.6c0.8-0.5,1.7-0.9,2.6-1.2h-3.4v0.2L16.1,45.6z M50.3,44.6v-0.2h-2.9c0.8,0.2,1.5,0.6,2.2,1L50.3,44.6z M150.7,39.9
	h1.3v7.8h-1.3V39.9z M149.4,42.8l1.3-3v7.8l-1.3-3V42.8z M115.6,54.5c0,4.4-3.6,8-8,8c-4.4,0-8-3.6-8-8c0-4.4,3.6-8,8-8
	C112,46.5,115.6,50.1,115.6,54.5z M107.6,48c-3.6,0-6.5,2.9-6.5,6.5c0,3.6,2.9,6.5,6.5,6.5c3.6,0,6.5-2.9,6.5-6.5
	C114.1,50.9,111.2,48,107.6,48z M113.1,54.5c0,3-2.4,5.4-5.4,5.4c-3,0-5.5-2.4-5.5-5.4c0-3,2.4-5.4,5.5-5.4
	C110.6,49,113.1,51.5,113.1,54.5z M130.9,46.5c4.4,0,8,3.6,8,8c0,4.4-3.6,8-8,8s-8-3.6-8-8C122.9,50.1,126.4,46.5,130.9,46.5z
	 M124.4,54.5c0,3.6,2.9,6.5,6.5,6.5c3.6,0,6.5-2.9,6.5-6.5c0-3.6-2.9-6.5-6.5-6.5C127.3,48,124.4,50.9,124.4,54.5z M130.9,49
	c3,0,5.5,2.4,5.5,5.4c0,3-2.4,5.4-5.5,5.4c-3,0-5.4-2.4-5.4-5.4C125.4,51.5,127.8,49,130.9,49z M138.1,43.1v2l-2,2.2
	c-1.6-1.3-3.6-2.1-5.8-2.1c-5.1,0-9.2,4.1-9.2,9.2c0,0.2,0,0.3,0,0.5h-4.3c0-0.2,0-0.3,0-0.5c0-5.1-4.1-9.2-9.2-9.2
	c-2.1,0-3.9,0.7-5.5,1.8l-1.7-2v-2H138.1z M119.8,53.6c0.4-4.4,3.4-8,7.5-9.2h-16.6c4.1,1.2,7.1,4.9,7.5,9.2H119.8z M136.8,44.6
	v-0.2h-3.4c0.9,0.3,1.8,0.7,2.6,1.2L136.8,44.6z M102.4,45.4c0.7-0.4,1.4-0.7,2.2-1h-2.9v0.2L102.4,45.4z M89.6,43.1v8.8h-0.9v-8.8
	H89.6z M101.8,43.1l-12.2,8.8v-1.3l10.5-7.6H101.8z M67.1,0H12H4.8v7.2V34v7.2H12h55.1h7.2V34V7.2V0H67.1z M73.1,1.2V6h-4.8V1.2
	H73.1z M67.1,34v0.7h-3V6.5h3v0.7h0.7V34H67.1z M11.3,34V7.2H12V6.5h3v28.2h-3V34H11.3z M16.2,6.5h4.1v28.2h-4.1V6.5z M21.5,6.5h4.1
	v28.2h-4.1V6.5z M26.8,6.5H31v28.2h-4.1V6.5z M32.1,6.5h4.1v28.2h-4.1V6.5z M37.5,6.5h4.1v28.2h-4.1V6.5z M42.8,6.5h4.1v28.2h-4.1
	V6.5z M48.1,6.5h4.1v28.2h-4.1V6.5z M53.4,6.5h4.1v28.2h-4.1V6.5z M58.7,6.5h4.1v28.2h-4.1V6.5z M67.1,1.2v4.1H12V1.2H67.1z M6,1.2
	h4.8V6H6V1.2z M6,7.2h4.1V34H6V7.2z M6,40v-4.8h4.8V40H6z M12,40v-4.1h55.1V40H12z M73.1,40h-4.8v-4.8h4.8V40z M73.1,34h-4.1V7.2
	h4.1V34z M140.3,0H85.2H78v7.2V34v7.2h7.2h55.1h7.2V34V7.2V0H140.3z M146.3,1.2V6h-4.8V1.2H146.3z M140.3,34v0.7h-3V6.5h3v0.7h0.7
	V34H140.3z M84.5,34V7.2h0.7V6.5h3v28.2h-3V34H84.5z M89.4,6.5h4.1v28.2h-4.1V6.5z M94.8,6.5h4.1v28.2h-4.1V6.5z M100.1,6.5h4.1
	v28.2h-4.1V6.5z M105.4,6.5h4.1v28.2h-4.1V6.5z M110.7,6.5h4.1v28.2h-4.1V6.5z M116,6.5h4.1v28.2H116V6.5z M121.3,6.5h4.1v28.2h-4.1
	V6.5z M126.6,6.5h4.1v28.2h-4.1V6.5z M131.9,6.5h4.1v28.2h-4.1V6.5z M140.3,1.2v4.1H85.2V1.2H140.3z M79.2,1.2H84V6h-4.8V1.2z
	 M79.2,7.2h4.1V34h-4.1V7.2z M79.2,40v-4.8H84V40H79.2z M85.2,40v-4.1h55.1V40H85.2z M146.3,40h-4.8v-4.8h4.8V40z M146.3,34h-4.1
	V7.2h4.1V34z"/>
</svg>
