<?xml version="1.0" encoding="utf-8"?>
<!-- Generator: Adobe Illustrator 22.0.1, SVG Export Plug-In . SVG Version: 6.00 Build 0)  -->
<svg version="1.1" id="Layer_1" xmlns="http://www.w3.org/2000/svg" xmlns:xlink="http://www.w3.org/1999/xlink" x="0px" y="0px"
	 viewBox="0 0 152 109" style="enable-background:new 0 0 152 109;" xml:space="preserve">
<style type="text/css">
	.st0{fill:url(#SVGID_1_);}
	.st1{fill:url(#SVGID_2_);}
	.st2{fill:url(#SVGID_3_);}
	.st3{fill:none;stroke:url(#SVGID_4_);stroke-width:1.2;stroke-miterlimit:10;}
	.st4{fill:url(#SVGID_5_);}
	.st5{fill:url(#SVGID_6_);}
	.st6{fill:url(#SVGID_7_);}
	.st7{fill:url(#SVGID_8_);}
</style>
<linearGradient id="SVGID_1_" gradientUnits="userSpaceOnUse" x1="0" y1="54.4765" x2="152" y2="54.4765">
	<stop  offset="0" style="stop-color:#FFFFFF"/>
	<stop  offset="1" style="stop-color:#9BA8B0"/>
</linearGradient>
<path class="st0" d="M4.9,18.4v69.9h143.6V18.4H4.9z M147.2,86.9H6.2V19.7h141V86.9z M13.9,90.9H2.5v-1.3h11.4V90.9z M138.1,89.6
	h11.4v1.3h-11.4V89.6z M100.4,90.9H51.6v-1.3h48.8V90.9z M89.5,98.4H63.8v-1.3h25.7V98.4z M64.7,89.6v8.8h-0.9v-8.8H64.7z
	 M53.3,89.6l10.5,7.6v1.3l-12.2-8.8H53.3z M1.3,94.1H0v-7.8h1.3V94.1z M2.6,91.1l-1.3,3v-7.8l1.3,3V91.1z M44.4,93c4.4,0,8,3.6,8,8
	c0,4.4-3.6,8-8,8c-4.4,0-8-3.6-8-8C36.4,96.6,40,93,44.4,93z M37.9,101c0,3.6,2.9,6.5,6.5,6.5c3.6,0,6.5-2.9,6.5-6.5
	c0-3.6-2.9-6.5-6.5-6.5C40.8,94.5,37.9,97.4,37.9,101z M44.4,95.5c3,0,5.5,2.4,5.5,5.4c0,3-2.4,5.4-5.5,5.4c-3,0-5.4-2.4-5.4-5.4
	C38.9,98,41.4,95.5,44.4,95.5z M29.1,101c0,4.4-3.6,8-8,8s-8-3.6-8-8c0-4.4,3.6-8,8-8S29.1,96.6,29.1,101z M21.1,94.5
	c-3.6,0-6.5,2.9-6.5,6.5c0,3.6,2.9,6.5,6.5,6.5c3.6,0,6.5-2.9,6.5-6.5C27.6,97.4,24.7,94.5,21.1,94.5z M26.6,101
	c0,3-2.4,5.4-5.4,5.4c-3,0-5.5-2.4-5.5-5.4c0-3,2.4-5.4,5.5-5.4C24.2,95.5,26.6,98,26.6,101z M51.6,89.6v2l-1.7,2
	c-1.5-1.1-3.4-1.8-5.5-1.8c-5.1,0-9.2,4.1-9.2,9.2c0,0.2,0,0.3,0,0.5h-4.3c0-0.2,0-0.3,0-0.5c0-5.1-4.1-9.2-9.2-9.2
	c-2.2,0-4.2,0.8-5.8,2.1l-2-2.2v-2H51.6z M33.9,100.1c0.4-4.4,3.4-8,7.5-9.2H24.7c4.1,1.2,7.1,4.9,7.5,9.2H33.9z M16.1,92
	c0.8-0.5,1.7-0.9,2.6-1.2h-3.4v0.2L16.1,92z M50.3,91.1v-0.2h-2.9c0.8,0.2,1.5,0.6,2.2,1L50.3,91.1z M150.7,86.3h1.3v7.8h-1.3V86.3z
	 M149.4,89.3l1.3-3v7.8l-1.3-3V89.3z M115.6,101c0,4.4-3.6,8-8,8c-4.4,0-8-3.6-8-8c0-4.4,3.6-8,8-8C112,93,115.6,96.6,115.6,101z
	 M107.6,94.5c-3.6,0-6.5,2.9-6.5,6.5c0,3.6,2.9,6.5,6.5,6.5c3.6,0,6.5-2.9,6.5-6.5C114.1,97.4,111.2,94.5,107.6,94.5z M113.1,101
	c0,3-2.4,5.4-5.4,5.4c-3,0-5.5-2.4-5.5-5.4c0-3,2.4-5.4,5.5-5.4C110.6,95.5,113.1,98,113.1,101z M130.9,93c4.4,0,8,3.6,8,8
	c0,4.4-3.6,8-8,8s-8-3.6-8-8C122.9,96.6,126.4,93,130.9,93z M124.4,101c0,3.6,2.9,6.5,6.5,6.5c3.6,0,6.5-2.9,6.5-6.5
	c0-3.6-2.9-6.5-6.5-6.5C127.3,94.5,124.4,97.4,124.4,101z M130.9,95.5c3,0,5.5,2.4,5.5,5.4c0,3-2.4,5.4-5.5,5.4
	c-3,0-5.4-2.4-5.4-5.4C125.4,98,127.8,95.5,130.9,95.5z M138.1,89.6v2l-2,2.2c-1.6-1.3-3.6-2.1-5.8-2.1c-5.1,0-9.2,4.1-9.2,9.2
	c0,0.2,0,0.3,0,0.5h-4.3c0-0.2,0-0.3,0-0.5c0-5.1-4.1-9.2-9.2-9.2c-2.1,0-3.9,0.7-5.5,1.8l-1.7-2v-2H138.1z M119.8,100.1
	c0.4-4.4,3.4-8,7.5-9.2h-16.6c4.1,1.2,7.1,4.9,7.5,9.2H119.8z M136.8,91.1v-0.2h-3.4c0.9,0.3,1.8,0.7,2.6,1.2L136.8,91.1z
	 M102.4,91.8c0.7-0.4,1.4-0.7,2.2-1h-2.9v0.2L102.4,91.8z M89.6,89.6v8.8h-0.9v-8.8H89.6z M101.8,89.6l-12.2,8.8v-1.3l10.5-7.6
	H101.8z M113.6,21v64.6h32.3V21H113.6z M114.9,84.3V22.3h14.9l14.8,14.8v47.2H114.9z M131.6,22.3h12.9v12.9L131.6,22.3z M112.3,21
	H41.1v64.6h71.1v-49l0,0l0,0V21z M42.4,22.3h12.9L42.4,35.2V22.3z M110.9,84.3H42.4V37.1l14.8-14.8h39l14.8,14.8V84.3z M110.9,35.2
	L98,22.3h12.9V35.2z M7.5,21v64.6h32.3V21H7.5z M21.8,22.3L8.8,35.2V22.3H21.8z M38.5,84.3H8.8V37.1l14.8-14.8h14.9V84.3z
	 M135.5,1.2c6.5,0,11.8,5.3,11.8,11.8v5.5H6.1V13c0-6.5,5.3-11.8,11.8-11.8H135.5 M135.5,0H17.9c-7.2,0-13,5.8-13,13v6.7h143.6V13
	C148.5,5.8,142.7,0,135.5,0L135.5,0z"/>
</svg>
